<svg width="30" height="30" viewBox="0 0 30 30" fill="none" xmlns="http://www.w3.org/2000/svg">
<path d="M7.63711 8.70152L11.856 9.78811L12.2911 9.90017L12.4488 9.47948L13.9786 5.40034L16.1935 9.15187L16.4219 9.53877L16.8309 9.35285L20.797 7.55017L19.7104 11.769L19.5984 12.2041L20.0191 12.3619L24.0982 13.8917L20.3467 16.1065L19.9598 16.335L20.1457 16.744L21.9484 20.7101L17.7295 19.6235L17.2944 19.5114L17.1366 19.9321L15.6069 24.0113L13.392 20.2597L13.1636 19.8728L12.7545 20.0588L8.78845 21.8614L9.87504 17.6426L9.9871 17.2075L9.56641 17.0497L5.48727 15.5199L9.2388 13.3051L9.6257 13.0766L9.43979 12.6676L7.63711 8.70152Z" fill="white" stroke="#262326"/>
</svg>
