<svg width="50" height="37" viewBox="0 0 50 37" fill="none" xmlns="http://www.w3.org/2000/svg">
<g opacity="0.4">
<path d="M25 0L26.9976 4.17735L31.364 2.63604L29.8227 7.00239L34 9L29.8227 10.9976L31.364 15.364L26.9976 13.8227L25 18L23.0024 13.8227L18.636 15.364L20.1773 10.9976L16 9L20.1773 7.00239L18.636 2.63604L23.0024 4.17735L25 0Z" fill="#262326"/>
<path d="M4.72 25.056H7.636C7.884 25.056 8.124 25.112 8.356 25.224C8.588 25.336 8.792 25.484 8.968 25.668C9.144 25.844 9.284 26.048 9.388 26.28C9.492 26.504 9.544 26.732 9.544 26.964C9.544 27.156 9.524 27.344 9.484 27.528C9.452 27.712 9.396 27.888 9.316 28.056C9.236 28.216 9.136 28.36 9.016 28.488C8.904 28.608 8.768 28.704 8.608 28.776C8.832 28.832 9.024 28.928 9.184 29.064C9.344 29.2 9.476 29.36 9.58 29.544C9.692 29.72 9.772 29.916 9.82 30.132C9.876 30.34 9.904 30.548 9.904 30.756C9.904 31.012 9.848 31.276 9.736 31.548C9.632 31.812 9.488 32.052 9.304 32.268C9.12 32.484 8.904 32.66 8.656 32.796C8.416 32.932 8.16 33 7.888 33H4.72V25.056ZM5.668 28.416H7.444C7.596 28.416 7.744 28.376 7.888 28.296C8.032 28.208 8.156 28.1 8.26 27.972C8.372 27.844 8.46 27.704 8.524 27.552C8.588 27.392 8.62 27.24 8.62 27.096C8.62 26.976 8.596 26.848 8.548 26.712C8.5 26.568 8.424 26.44 8.32 26.328C8.224 26.208 8.1 26.108 7.948 26.028C7.804 25.948 7.636 25.908 7.444 25.908H5.668V28.416ZM5.668 32.148H7.54C7.708 32.148 7.876 32.108 8.044 32.028C8.212 31.948 8.36 31.844 8.488 31.716C8.624 31.58 8.732 31.428 8.812 31.26C8.9 31.084 8.944 30.904 8.944 30.72C8.944 30.552 8.912 30.38 8.848 30.204C8.784 30.02 8.692 29.856 8.572 29.712C8.452 29.568 8.304 29.452 8.128 29.364C7.96 29.268 7.768 29.22 7.552 29.22H5.668V32.148ZM10.5536 28.8C10.5536 28.512 10.6176 28.252 10.7456 28.02C10.8816 27.788 11.0536 27.592 11.2616 27.432C11.4776 27.264 11.7136 27.14 11.9696 27.06C12.2336 26.972 12.4976 26.928 12.7616 26.928C13.0416 26.928 13.3136 26.968 13.5776 27.048C13.8496 27.128 14.0896 27.248 14.2976 27.408C14.5056 27.568 14.6736 27.764 14.8016 27.996C14.9296 28.228 14.9936 28.496 14.9936 28.8V31.872C14.9936 31.968 15.0296 32.064 15.1016 32.16C15.1736 32.248 15.2576 32.292 15.3536 32.292C15.4096 32.292 15.4616 32.28 15.5096 32.256C15.5576 32.232 15.6136 32.204 15.6776 32.172V32.988C15.5736 33.02 15.4736 33.048 15.3776 33.072C15.2816 33.096 15.1536 33.108 14.9936 33.108C14.4816 33.108 14.2256 32.784 14.2256 32.136C13.9536 32.472 13.6216 32.72 13.2296 32.88C12.8456 33.032 12.4616 33.108 12.0776 33.108C11.8456 33.108 11.6256 33.068 11.4176 32.988C11.2096 32.9 11.0216 32.78 10.8536 32.628C10.6936 32.476 10.5656 32.304 10.4696 32.112C10.3736 31.912 10.3256 31.696 10.3256 31.464C10.3256 31.096 10.4176 30.796 10.6016 30.564C10.7936 30.324 11.0296 30.128 11.3096 29.976C11.5976 29.816 11.9056 29.692 12.2336 29.604C12.5616 29.508 12.8656 29.424 13.1456 29.352C13.4336 29.272 13.6696 29.192 13.8536 29.112C14.0456 29.032 14.1416 28.928 14.1416 28.8C14.1416 28.648 14.1136 28.5 14.0576 28.356C14.0016 28.212 13.9176 28.088 13.8056 27.984C13.6936 27.872 13.5496 27.784 13.3736 27.72C13.2056 27.656 13.0016 27.624 12.7616 27.624C12.5856 27.624 12.4136 27.656 12.2456 27.72C12.0856 27.776 11.9416 27.856 11.8136 27.96C11.6936 28.064 11.5936 28.188 11.5136 28.332C11.4416 28.476 11.4056 28.632 11.4056 28.8H10.5536ZM14.1416 29.748C13.9256 29.844 13.6496 29.936 13.3136 30.024C12.9856 30.104 12.6656 30.204 12.3536 30.324C12.0416 30.436 11.7736 30.58 11.5496 30.756C11.3256 30.932 11.2136 31.16 11.2136 31.44C11.2136 31.744 11.3256 31.98 11.5496 32.148C11.7736 32.316 12.0376 32.4 12.3416 32.4C12.5016 32.4 12.6736 32.376 12.8576 32.328C13.0416 32.28 13.2176 32.208 13.3856 32.112C13.5536 32.016 13.7016 31.896 13.8296 31.752C13.9656 31.608 14.0696 31.44 14.1416 31.248V29.748ZM20.6238 30.936C20.5598 31.24 20.4638 31.524 20.3358 31.788C20.2078 32.052 20.0438 32.284 19.8438 32.484C19.6518 32.676 19.4238 32.828 19.1598 32.94C18.8958 33.052 18.5958 33.108 18.2598 33.108C17.8438 33.108 17.4838 33.024 17.1798 32.856C16.8758 32.68 16.6198 32.452 16.4118 32.172C16.2118 31.884 16.0598 31.556 15.9558 31.188C15.8598 30.82 15.8118 30.436 15.8118 30.036C15.8118 29.636 15.8598 29.248 15.9558 28.872C16.0598 28.496 16.2118 28.164 16.4118 27.876C16.6198 27.588 16.8758 27.356 17.1798 27.18C17.4838 27.004 17.8438 26.916 18.2598 26.916C18.5798 26.916 18.8678 26.972 19.1238 27.084C19.3878 27.196 19.6158 27.348 19.8078 27.54C20.0078 27.732 20.1718 27.956 20.2998 28.212C20.4278 28.46 20.5238 28.728 20.5878 29.016H19.7238C19.6118 28.616 19.4318 28.288 19.1838 28.032C18.9358 27.768 18.6278 27.636 18.2598 27.636C18.0038 27.636 17.7758 27.704 17.5758 27.84C17.3838 27.968 17.2198 28.144 17.0838 28.368C16.9478 28.584 16.8438 28.836 16.7718 29.124C16.6998 29.412 16.6638 29.716 16.6638 30.036C16.6638 30.356 16.6998 30.66 16.7718 30.948C16.8438 31.228 16.9478 31.476 17.0838 31.692C17.2198 31.908 17.3838 32.08 17.5758 32.208C17.7758 32.328 18.0038 32.388 18.2598 32.388C18.6438 32.388 18.9598 32.252 19.2078 31.98C19.4638 31.708 19.6438 31.36 19.7478 30.936H20.6238ZM22.108 25.056V29.892H22.12L24.724 27.036H25.696L23.536 29.508L25.768 33H24.76L22.972 30.144L22.108 31.14V33H21.256V25.056H22.108ZM28.5538 29.568V30.396H25.9858V29.568H28.5538ZM34.0848 25.056V25.908H30.2328V28.476H33.8568V29.328H30.2328V32.148H34.2528V33H29.2848V25.056H34.0848ZM34.9801 27.036H35.8321V27.792H35.8561C35.9521 27.648 36.0681 27.524 36.2041 27.42C36.3481 27.308 36.5001 27.216 36.6601 27.144C36.8281 27.072 37.0001 27.02 37.1761 26.988C37.3521 26.948 37.5241 26.928 37.6921 26.928C38.2361 26.928 38.6641 27.072 38.9761 27.36C39.2881 27.64 39.4441 28.008 39.4441 28.464V33H38.5921V28.68C38.5921 28.536 38.5601 28.4 38.4961 28.272C38.4321 28.144 38.3521 28.036 38.2561 27.948C38.1601 27.86 38.0521 27.792 37.9321 27.744C37.8121 27.688 37.7001 27.66 37.5961 27.66C37.4201 27.66 37.2361 27.696 37.0441 27.768C36.8521 27.832 36.6721 27.92 36.5041 28.032C36.3441 28.144 36.2001 28.276 36.0721 28.428C35.9521 28.58 35.8721 28.744 35.8321 28.92V33H34.9801V27.036ZM42.6863 33.108C42.2703 33.108 41.9103 33.024 41.6063 32.856C41.3023 32.68 41.0463 32.452 40.8383 32.172C40.6383 31.884 40.4863 31.556 40.3823 31.188C40.2863 30.82 40.2383 30.436 40.2383 30.036C40.2383 29.636 40.2863 29.248 40.3823 28.872C40.4863 28.496 40.6383 28.164 40.8383 27.876C41.0463 27.588 41.3023 27.356 41.6063 27.18C41.9103 27.004 42.2703 26.916 42.6863 26.916C43.0383 26.916 43.3543 27 43.6343 27.168C43.9223 27.336 44.1463 27.56 44.3063 27.84V24.828H45.1343V33H44.3063V32.256C44.1463 32.504 43.9223 32.708 43.6343 32.868C43.3543 33.028 43.0383 33.108 42.6863 33.108ZM42.6863 32.388C42.9423 32.388 43.1663 32.328 43.3583 32.208C43.5583 32.08 43.7263 31.908 43.8623 31.692C43.9983 31.476 44.1023 31.228 44.1743 30.948C44.2463 30.66 44.2823 30.356 44.2823 30.036C44.2823 29.716 44.2463 29.412 44.1743 29.124C44.1023 28.836 43.9983 28.584 43.8623 28.368C43.7263 28.144 43.5583 27.968 43.3583 27.84C43.1663 27.704 42.9423 27.636 42.6863 27.636C42.4303 27.636 42.2023 27.704 42.0023 27.84C41.8103 27.968 41.6463 28.144 41.5103 28.368C41.3743 28.584 41.2703 28.836 41.1983 29.124C41.1263 29.412 41.0903 29.716 41.0903 30.036C41.0903 30.356 41.1263 30.66 41.1983 30.948C41.2703 31.228 41.3743 31.476 41.5103 31.692C41.6463 31.908 41.8103 32.08 42.0023 32.208C42.2023 32.328 42.4303 32.388 42.6863 32.388Z" fill="#262326"/>
</g>
</svg>
