<svg width="50" height="37" viewBox="0 0 50 37" fill="none" xmlns="http://www.w3.org/2000/svg">
<path d="M25 0L28.0682 4.77693L33.5595 6.21885L29.9645 10.6131L30.2901 16.2812L25 14.22L19.7099 16.2812L20.0355 10.6131L16.4405 6.21885L21.9318 4.77693L25 0Z" fill="#262326"/>
<path d="M9.424 25.056V25.908H5.68V28.476H8.932V29.328H5.68V33H4.72V25.056H9.424ZM9.92303 27.036H10.775V27.78H10.799C10.951 27.508 11.135 27.3 11.351 27.156C11.575 27.004 11.855 26.928 12.191 26.928C12.351 26.928 12.499 26.964 12.635 27.036V27.888C12.523 27.856 12.439 27.836 12.383 27.828C12.327 27.82 12.267 27.816 12.203 27.816C11.995 27.816 11.803 27.852 11.627 27.924C11.451 27.996 11.299 28.096 11.171 28.224C11.051 28.344 10.955 28.488 10.883 28.656C10.811 28.816 10.775 28.988 10.775 29.172V33H9.92303V27.036ZM15.1806 33.108C14.7646 33.108 14.3966 33.024 14.0766 32.856C13.7566 32.68 13.4886 32.452 13.2726 32.172C13.0566 31.884 12.8926 31.556 12.7806 31.188C12.6686 30.82 12.6126 30.436 12.6126 30.036C12.6126 29.636 12.6686 29.248 12.7806 28.872C12.8926 28.496 13.0566 28.164 13.2726 27.876C13.4886 27.588 13.7566 27.356 14.0766 27.18C14.3966 27.004 14.7646 26.916 15.1806 26.916C15.5966 26.916 15.9646 27.004 16.2846 27.18C16.6046 27.356 16.8726 27.588 17.0886 27.876C17.3046 28.164 17.4686 28.496 17.5806 28.872C17.6926 29.248 17.7486 29.636 17.7486 30.036C17.7486 30.436 17.6926 30.82 17.5806 31.188C17.4686 31.556 17.3046 31.884 17.0886 32.172C16.8726 32.452 16.6046 32.68 16.2846 32.856C15.9646 33.024 15.5966 33.108 15.1806 33.108ZM15.1806 32.388C15.4366 32.388 15.6686 32.328 15.8766 32.208C16.0926 32.08 16.2726 31.908 16.4166 31.692C16.5686 31.476 16.6846 31.228 16.7646 30.948C16.8526 30.66 16.8966 30.356 16.8966 30.036C16.8966 29.716 16.8526 29.412 16.7646 29.124C16.6846 28.836 16.5686 28.584 16.4166 28.368C16.2726 28.144 16.0926 27.968 15.8766 27.84C15.6686 27.704 15.4366 27.636 15.1806 27.636C14.9246 27.636 14.6886 27.704 14.4726 27.84C14.2646 27.968 14.0846 28.144 13.9326 28.368C13.7886 28.584 13.6726 28.836 13.5846 29.124C13.5046 29.412 13.4646 29.716 13.4646 30.036C13.4646 30.356 13.5046 30.66 13.5846 30.948C13.6726 31.228 13.7886 31.476 13.9326 31.692C14.0846 31.908 14.2646 32.08 14.4726 32.208C14.6886 32.328 14.9246 32.388 15.1806 32.388ZM18.3849 27.036H19.2369V27.792H19.2609C19.3569 27.648 19.4729 27.524 19.6089 27.42C19.7529 27.308 19.9049 27.216 20.0649 27.144C20.2329 27.072 20.4049 27.02 20.5809 26.988C20.7569 26.948 20.9289 26.928 21.0969 26.928C21.6409 26.928 22.0689 27.072 22.3809 27.36C22.6929 27.64 22.8489 28.008 22.8489 28.464V33H21.9969V28.68C21.9969 28.536 21.9649 28.4 21.9009 28.272C21.8369 28.144 21.7569 28.036 21.6609 27.948C21.5649 27.86 21.4569 27.792 21.3369 27.744C21.2169 27.688 21.1049 27.66 21.0009 27.66C20.8249 27.66 20.6409 27.696 20.4489 27.768C20.2569 27.832 20.0769 27.92 19.9089 28.032C19.7489 28.144 19.6049 28.276 19.4769 28.428C19.3569 28.58 19.2769 28.744 19.2369 28.92V33H18.3849V27.036ZM24.9872 25.392V27.036H25.9352V27.768H24.9872V31.716C24.9872 31.964 25.0632 32.14 25.2152 32.244C25.3672 32.34 25.5472 32.388 25.7552 32.388C25.7952 32.388 25.8392 32.388 25.8872 32.388C25.9352 32.38 25.9952 32.356 26.0672 32.316V33.012C25.9632 33.036 25.8472 33.056 25.7192 33.072C25.5912 33.096 25.4552 33.108 25.3112 33.108C25.1512 33.108 24.9992 33.088 24.8552 33.048C24.7192 33.008 24.5952 32.944 24.4832 32.856C24.3792 32.768 24.2952 32.652 24.2312 32.508C24.1672 32.364 24.1352 32.188 24.1352 31.98V27.768H23.2712V27.036H24.1352V25.392H24.9872ZM28.7535 29.568V30.396H26.1855V29.568H28.7535ZM34.2845 25.056V25.908H30.4325V28.476H34.0565V29.328H30.4325V32.148H34.4525V33H29.4845V25.056H34.2845ZM35.1797 27.036H36.0317V27.792H36.0557C36.1517 27.648 36.2677 27.524 36.4037 27.42C36.5477 27.308 36.6997 27.216 36.8597 27.144C37.0277 27.072 37.1997 27.02 37.3757 26.988C37.5517 26.948 37.7237 26.928 37.8917 26.928C38.4357 26.928 38.8637 27.072 39.1757 27.36C39.4877 27.64 39.6437 28.008 39.6437 28.464V33H38.7917V28.68C38.7917 28.536 38.7597 28.4 38.6957 28.272C38.6317 28.144 38.5517 28.036 38.4557 27.948C38.3597 27.86 38.2517 27.792 38.1317 27.744C38.0117 27.688 37.8997 27.66 37.7957 27.66C37.6197 27.66 37.4357 27.696 37.2437 27.768C37.0517 27.832 36.8717 27.92 36.7037 28.032C36.5437 28.144 36.3997 28.276 36.2717 28.428C36.1517 28.58 36.0717 28.744 36.0317 28.92V33H35.1797V27.036ZM42.886 33.108C42.47 33.108 42.11 33.024 41.806 32.856C41.502 32.68 41.246 32.452 41.038 32.172C40.838 31.884 40.686 31.556 40.582 31.188C40.486 30.82 40.438 30.436 40.438 30.036C40.438 29.636 40.486 29.248 40.582 28.872C40.686 28.496 40.838 28.164 41.038 27.876C41.246 27.588 41.502 27.356 41.806 27.18C42.11 27.004 42.47 26.916 42.886 26.916C43.238 26.916 43.554 27 43.834 27.168C44.122 27.336 44.346 27.56 44.506 27.84V24.828H45.334V33H44.506V32.256C44.346 32.504 44.122 32.708 43.834 32.868C43.554 33.028 43.238 33.108 42.886 33.108ZM42.886 32.388C43.142 32.388 43.366 32.328 43.558 32.208C43.758 32.08 43.926 31.908 44.062 31.692C44.198 31.476 44.302 31.228 44.374 30.948C44.446 30.66 44.482 30.356 44.482 30.036C44.482 29.716 44.446 29.412 44.374 29.124C44.302 28.836 44.198 28.584 44.062 28.368C43.926 28.144 43.758 27.968 43.558 27.84C43.366 27.704 43.142 27.636 42.886 27.636C42.63 27.636 42.402 27.704 42.202 27.84C42.01 27.968 41.846 28.144 41.71 28.368C41.574 28.584 41.47 28.836 41.398 29.124C41.326 29.412 41.29 29.716 41.29 30.036C41.29 30.356 41.326 30.66 41.398 30.948C41.47 31.228 41.574 31.476 41.71 31.692C41.846 31.908 42.01 32.08 42.202 32.208C42.402 32.328 42.63 32.388 42.886 32.388Z" fill="#262326"/>
</svg>
