<svg width="50" height="37" viewBox="0 0 50 37" fill="none" xmlns="http://www.w3.org/2000/svg">
<path d="M25 0L27.61 4.47935L32.7942 4.5L30.22 9L32.7942 13.5L27.61 13.5207L25 18L22.39 13.5207L17.2058 13.5L19.78 9L17.2058 4.5L22.39 4.47935L25 0Z" fill="#262326"/>
<path d="M1.72 25.056H4.6C4.912 25.056 5.196 25.128 5.452 25.272C5.716 25.416 5.936 25.6 6.112 25.824C6.296 26.04 6.436 26.28 6.532 26.544C6.636 26.808 6.688 27.064 6.688 27.312C6.688 27.576 6.636 27.844 6.532 28.116C6.436 28.38 6.296 28.624 6.112 28.848C5.936 29.064 5.716 29.244 5.452 29.388C5.196 29.524 4.912 29.592 4.6 29.592H2.668V33H1.72V25.056ZM2.668 28.74H4.504C4.648 28.74 4.788 28.7 4.924 28.62C5.06 28.532 5.184 28.42 5.296 28.284C5.408 28.148 5.496 27.996 5.56 27.828C5.632 27.652 5.668 27.48 5.668 27.312C5.668 27.144 5.636 26.976 5.572 26.808C5.508 26.64 5.424 26.492 5.32 26.364C5.216 26.228 5.092 26.12 4.948 26.04C4.804 25.952 4.656 25.908 4.504 25.908H2.668V28.74ZM8.78603 25.056L10.586 31.692H10.61L12.518 25.056H13.862V33H12.914V26.556H12.878L11.018 33H10.178L8.29403 26.556H8.27003V33H7.32203V25.056H8.78603ZM16.8265 25.728L16.6705 27.228L18.0385 26.592L18.3385 27.444L16.8025 27.768L17.8945 28.86L17.1865 29.388L16.3825 28.092L15.5665 29.388L14.8705 28.86L15.9625 27.768L14.4385 27.42L14.7145 26.592L16.0945 27.228L15.9385 25.728H16.8265ZM18.9245 25.056H21.8045C22.2765 25.056 22.6925 25.172 23.0525 25.404C23.4205 25.636 23.7245 25.94 23.9645 26.316C24.2125 26.684 24.4005 27.104 24.5285 27.576C24.6565 28.048 24.7205 28.528 24.7205 29.016C24.7205 29.512 24.6565 30 24.5285 30.48C24.4005 30.96 24.2165 31.388 23.9765 31.764C23.7365 32.132 23.4405 32.432 23.0885 32.664C22.7365 32.888 22.3325 33 21.8765 33H18.9245V25.056ZM19.8725 32.148H21.6005C21.9445 32.148 22.2485 32.064 22.5125 31.896C22.7845 31.728 23.0125 31.504 23.1965 31.224C23.3805 30.936 23.5165 30.604 23.6045 30.228C23.7005 29.852 23.7485 29.452 23.7485 29.028C23.7485 28.564 23.7005 28.144 23.6045 27.768C23.5165 27.384 23.3805 27.056 23.1965 26.784C23.0205 26.504 22.7965 26.288 22.5245 26.136C22.2605 25.984 21.9565 25.908 21.6125 25.908H19.8725V32.148ZM30.2032 31.14C30.1232 31.42 30.0112 31.68 29.8672 31.92C29.7232 32.16 29.5472 32.368 29.3392 32.544C29.1392 32.72 28.9072 32.86 28.6432 32.964C28.3792 33.06 28.0912 33.108 27.7792 33.108C27.3632 33.108 26.9952 33.024 26.6752 32.856C26.3552 32.68 26.0872 32.452 25.8712 32.172C25.6552 31.884 25.4912 31.556 25.3792 31.188C25.2672 30.82 25.2112 30.436 25.2112 30.036C25.2112 29.636 25.2672 29.248 25.3792 28.872C25.4912 28.496 25.6552 28.164 25.8712 27.876C26.0872 27.588 26.3552 27.356 26.6752 27.18C26.9952 27.004 27.3632 26.916 27.7792 26.916C28.1952 26.916 28.5632 27.004 28.8832 27.18C29.2032 27.356 29.4712 27.588 29.6872 27.876C29.9032 28.164 30.0672 28.496 30.1792 28.872C30.2912 29.248 30.3472 29.636 30.3472 30.036V30.192H26.0632C26.0792 30.496 26.1312 30.784 26.2192 31.056C26.3072 31.32 26.4232 31.552 26.5672 31.752C26.7192 31.944 26.8952 32.1 27.0952 32.22C27.3032 32.332 27.5312 32.388 27.7792 32.388C28.1392 32.388 28.4552 32.276 28.7272 32.052C28.9992 31.82 29.2032 31.516 29.3392 31.14H30.2032ZM29.4352 29.472C29.3872 29.216 29.3152 28.976 29.2192 28.752C29.1232 28.528 29.0032 28.336 28.8592 28.176C28.7232 28.008 28.5632 27.876 28.3792 27.78C28.1952 27.684 27.9952 27.636 27.7792 27.636C27.5632 27.636 27.3632 27.684 27.1792 27.78C26.9952 27.876 26.8312 28.008 26.6872 28.176C26.5432 28.336 26.4192 28.528 26.3152 28.752C26.2192 28.976 26.1512 29.216 26.1112 29.472H29.4352ZM31.4658 31.176C31.4658 31.368 31.5018 31.54 31.5738 31.692C31.6458 31.844 31.7418 31.972 31.8618 32.076C31.9898 32.172 32.1338 32.248 32.2938 32.304C32.4538 32.36 32.6218 32.388 32.7978 32.388C32.9418 32.388 33.0978 32.372 33.2658 32.34C33.4338 32.3 33.5898 32.244 33.7338 32.172C33.8778 32.092 33.9978 31.992 34.0938 31.872C34.1898 31.752 34.2378 31.604 34.2378 31.428C34.2378 31.3 34.1978 31.18 34.1178 31.068C34.0458 30.948 33.9458 30.84 33.8178 30.744C33.6898 30.648 33.5418 30.56 33.3738 30.48C33.2058 30.392 33.0298 30.312 32.8458 30.24C32.5978 30.144 32.3498 30.044 32.1018 29.94C31.8618 29.828 31.6458 29.704 31.4538 29.568C31.2618 29.424 31.1058 29.26 30.9858 29.076C30.8658 28.892 30.8058 28.672 30.8058 28.416C30.8058 28.128 30.8618 27.888 30.9738 27.696C31.0858 27.504 31.2338 27.352 31.4178 27.24C31.6018 27.12 31.8138 27.036 32.0538 26.988C32.2938 26.932 32.5418 26.904 32.7978 26.904C33.1018 26.904 33.3818 26.94 33.6378 27.012C33.8938 27.076 34.1138 27.176 34.2978 27.312C34.4898 27.448 34.6378 27.62 34.7418 27.828C34.8458 28.028 34.8978 28.268 34.8978 28.548L34.0458 28.536C34.0458 28.376 34.0098 28.24 33.9378 28.128C33.8738 28.016 33.7818 27.924 33.6618 27.852C33.5498 27.78 33.4178 27.728 33.2658 27.696C33.1138 27.656 32.9578 27.636 32.7978 27.636C32.4618 27.636 32.1858 27.716 31.9698 27.876C31.7618 28.036 31.6578 28.212 31.6578 28.404C31.6578 28.548 31.6978 28.676 31.7778 28.788C31.8578 28.892 31.9618 28.988 32.0898 29.076C32.2178 29.156 32.3618 29.232 32.5218 29.304C32.6898 29.368 32.8618 29.44 33.0378 29.52C33.2698 29.624 33.5058 29.728 33.7458 29.832C33.9858 29.928 34.2058 30.044 34.4058 30.18C34.6058 30.308 34.7658 30.464 34.8858 30.648C35.0138 30.832 35.0778 31.06 35.0778 31.332C35.0778 31.652 35.0138 31.924 34.8858 32.148C34.7658 32.372 34.6018 32.556 34.3938 32.7C34.1858 32.844 33.9418 32.948 33.6618 33.012C33.3898 33.076 33.1018 33.108 32.7978 33.108C32.5018 33.108 32.2218 33.068 31.9578 32.988C31.6938 32.908 31.4618 32.788 31.2618 32.628C31.0698 32.46 30.9138 32.256 30.7938 32.016C30.6818 31.776 30.6258 31.496 30.6258 31.176H31.4658ZM36.5821 25.056V26.04H35.7301V25.056H36.5821ZM36.5821 27.036V33H35.7301V27.036H36.5821ZM39.5652 33.108C39.1492 33.108 38.7892 33.024 38.4852 32.856C38.1812 32.68 37.9252 32.452 37.7172 32.172C37.5172 31.884 37.3652 31.556 37.2612 31.188C37.1652 30.82 37.1172 30.436 37.1172 30.036C37.1172 29.636 37.1652 29.248 37.2612 28.872C37.3652 28.496 37.5172 28.164 37.7172 27.876C37.9252 27.588 38.1812 27.356 38.4852 27.18C38.7892 27.004 39.1492 26.916 39.5652 26.916C39.9172 26.916 40.2332 26.992 40.5132 27.144C40.7932 27.288 41.0252 27.5 41.2092 27.78V27.036H42.0612V33C42.0612 33.392 41.9932 33.736 41.8572 34.032C41.7212 34.336 41.5372 34.588 41.3052 34.788C41.0812 34.996 40.8252 35.152 40.5372 35.256C40.2492 35.36 39.9572 35.412 39.6612 35.412C39.3892 35.412 39.1292 35.376 38.8812 35.304C38.6332 35.24 38.4052 35.136 38.1972 34.992C37.9972 34.848 37.8212 34.664 37.6692 34.44C37.5172 34.224 37.4052 33.964 37.3332 33.66H38.2572C38.3772 34.044 38.5492 34.308 38.7732 34.452C39.0052 34.604 39.2972 34.68 39.6492 34.68C39.8492 34.68 40.0412 34.64 40.2252 34.56C40.4172 34.488 40.5852 34.384 40.7292 34.248C40.8732 34.112 40.9892 33.948 41.0772 33.756C41.1652 33.564 41.2092 33.352 41.2092 33.12V32.256C41.0332 32.512 40.8012 32.72 40.5132 32.88C40.2332 33.032 39.9172 33.108 39.5652 33.108ZM39.5652 32.388C39.8212 32.388 40.0492 32.328 40.2492 32.208C40.4492 32.08 40.6172 31.908 40.7532 31.692C40.8972 31.476 41.0052 31.228 41.0772 30.948C41.1492 30.66 41.1852 30.356 41.1852 30.036C41.1852 29.716 41.1492 29.412 41.0772 29.124C41.0052 28.836 40.8972 28.584 40.7532 28.368C40.6172 28.144 40.4492 27.968 40.2492 27.84C40.0492 27.704 39.8212 27.636 39.5652 27.636C39.3092 27.636 39.0812 27.704 38.8812 27.84C38.6892 27.968 38.5252 28.144 38.3892 28.368C38.2532 28.584 38.1492 28.836 38.0772 29.124C38.0052 29.412 37.9692 29.716 37.9692 30.036C37.9692 30.356 38.0052 30.66 38.0772 30.948C38.1492 31.228 38.2532 31.476 38.3892 31.692C38.5252 31.908 38.6892 32.08 38.8812 32.208C39.0812 32.328 39.3092 32.388 39.5652 32.388ZM42.9615 27.036H43.8135V27.792H43.8375C43.9335 27.648 44.0495 27.524 44.1855 27.42C44.3295 27.308 44.4815 27.216 44.6415 27.144C44.8095 27.072 44.9815 27.02 45.1575 26.988C45.3335 26.948 45.5055 26.928 45.6735 26.928C46.2175 26.928 46.6455 27.072 46.9575 27.36C47.2695 27.64 47.4255 28.008 47.4255 28.464V33H46.5735V28.68C46.5735 28.536 46.5415 28.4 46.4775 28.272C46.4135 28.144 46.3335 28.036 46.2375 27.948C46.1415 27.86 46.0335 27.792 45.9135 27.744C45.7935 27.688 45.6815 27.66 45.5775 27.66C45.4015 27.66 45.2175 27.696 45.0255 27.768C44.8335 27.832 44.6535 27.92 44.4855 28.032C44.3255 28.144 44.1815 28.276 44.0535 28.428C43.9335 28.58 43.8535 28.744 43.8135 28.92V33H42.9615V27.036Z" fill="#262326"/>
</svg>
